<?xml version="1.0" encoding="utf-8"?>
<!-- Generator: Adobe Illustrator 26.0.0, SVG Export Plug-In . SVG Version: 6.00 Build 0)  -->
<svg version="1.1" id="svlayer" xmlns="http://www.w3.org/2000/svg" xmlns:xlink="http://www.w3.org/1999/xlink" x="0px" y="0px"
	 viewBox="0 0 187 106.9" style="enable-background:new 0 0 187 106.9;" xml:space="preserve">
<style type="text/css">
	.st0{fill:none;stroke:#000000;stroke-width:5;stroke-miterlimit:10;}
	.st1{fill:none;}
</style>
<g id="svbr">
	<path id="rightbr" class="st0" d="M168.1,105.4c21.8-31.2,22-72.7,0.3-104"/>
	<path id="leftbr" class="st0" d="M18.7,1.4C-3,32.7-2.9,74.2,19,105.4"/>
</g>
<g id="svlt">
	<path d="M68.9,79.4c-4.7,0.1-9.3-1-13.5-3.1c-3.7-1.9-6.7-5-8.2-8.9l4.3-2.9c1.2,3.3,3.4,6,6.5,7.8c3.5,1.9,7.4,2.9,11.3,2.8
		c4.4,0,7.8-0.9,10.3-2.6c2.4-1.5,3.8-4.1,3.8-6.9c0-1.9-0.6-3.7-1.8-5c-1.2-1.4-3.5-2.5-7-3.2l-11.7-2.5c-4.8-1-8.2-2.6-10.2-4.8
		c-3.8-4.3-4.1-10.7-0.7-15.3c1.7-2.2,4-4,6.7-5.2c3.1-1.4,6.6-2.1,10-2c5,0,9.1,1,12.4,3c3.3,2,5.7,5.2,6.9,8.8l-4.2,2.7
		c-0.8-3.2-2.8-6-5.5-7.7c-2.9-1.7-6.2-2.5-9.5-2.4c-2.5,0-5,0.4-7.3,1.2c-1.9,0.7-3.6,1.9-4.9,3.4c-1.2,1.4-1.8,3.2-1.8,5
		c0,1.9,0.7,3.8,2,5.2c1.3,1.6,3.7,2.7,7.1,3.5l12,2.6c4.7,1,8,2.5,9.9,4.5c1.9,2.1,2.9,4.8,2.8,7.5c0.1,2.8-0.8,5.5-2.4,7.8
		c-1.7,2.3-4.1,4-6.8,5C75.9,78.9,72.4,79.5,68.9,79.4z"/>
	<path d="M135.4,28.4h5.3l-20.9,50h-5l-20.9-50h5.6l17.9,44.8L135.4,28.4z"/>
</g>
<g id="svsmbr">
	<g id="leftsmbr">
		<path class="st0" d="M32.8,11C24,23.8,19.6,38.6,19.7,53.4"/>
	</g>
	<g id="rightsmbr">
		<path class="st1" d="M154.2,95.9c8.8-12.8,13.2-27.6,13.2-42.4"/>
	</g>
</g>
</svg>
