<svg id="heart" xmlns="http://www.w3.org/2000/svg" viewBox="0 0 1366 1194.71"><defs><style>.cls-1{fill:#fff;}</style></defs><g id="hrt-group"><path class="cls-1" d="M643.26,1194.71v-86.09h83c-.21-.19.21.09.48.47a2.31,2.31,0,0,1,.49,1.23c0,28,0,55.93,0,84.39Z"/><path class="cls-1" d="M403.15,84H319.9V1c-.16.14.15-.25.55-.51A2.54,2.54,0,0,1,321.71,0c27,0,54,0,81.44,0Z"/><path class="cls-1" d="M962.63,83.74V.54h83c-.2-.18.22.1.49.48a2.39,2.39,0,0,1,.49,1.23c0,27,0,54,0,81.49Z"/><path class="cls-1" d="M1120.44.35h83.24v83c.19-.18-.13.2-.53.45a2.56,2.56,0,0,1-1.25.45c-27,0-54,0-81.46,0Z"/><path class="cls-1" d="M.53,162.13H83.79v83c.13-.13-.17.28-.57.53a2.41,2.41,0,0,1-1.26.43c-27,0-54,0-81.43,0Z"/><path class="cls-1" d="M150.11,257.41v-107H256.79c-.24-.22.3.14.64.64a3.07,3.07,0,0,1,.61,1.59c0,34.71,0,69.42,0,104.76Z"/><path class="cls-1" d="M307.74,257.39v-107H414.4c-.26-.24.27.12.62.6a3,3,0,0,1,.63,1.59c0,34.71,0,69.42,0,104.77Z"/><path class="cls-1" d="M564.9,245.72H481.66v-83c-.18.16.14-.22.54-.47a2.56,2.56,0,0,1,1.25-.45c27,0,54,0,81.45,0Z"/><path class="cls-1" d="M802,161.71h81.17a6.32,6.32,0,0,1,1,.95,2.26,2.26,0,0,1,.51,1.22c0,27,0,54,0,81.51H802C800,234.81,799.93,174.08,802,161.71Z"/><path class="cls-1" d="M952.17,149.75h104.36a8.3,8.3,0,0,1,1.34,1.23,3,3,0,0,1,.66,1.57c0,34.71,0,69.43,0,104.8H952.2C949.6,243.75,949.49,165.65,952.17,149.75Z"/><path class="cls-1" d="M1220,150.45V257.39H1113.33c.28.26-.25-.09-.6-.57a2.93,2.93,0,0,1-.65-1.57c0-34.72,0-69.43,0-104.8Z"/><path class="cls-1" d="M1364.47,246.13H1283.3a6.81,6.81,0,0,1-1-1,2.26,2.26,0,0,1-.51-1.22c0-27,0-54,0-81.51h82.72C1366.47,173,1366.56,233.76,1364.47,246.13Z"/><path class="cls-1" d="M82.82,403.74H1.64a6.75,6.75,0,0,1-1-.95,2.26,2.26,0,0,1-.51-1.23c0-27,0-54,0-81.51H82.79C84.81,330.63,84.9,391.37,82.82,403.74Z"/><path class="cls-1" d="M256.18,415.7H151.82a8.78,8.78,0,0,1-1.34-1.23,3,3,0,0,1-.66-1.57c0-34.72,0-69.43,0-104.8H256.15C258.75,321.7,258.86,399.79,256.18,415.7Z"/><path class="cls-1" d="M301.73,421V302.08H420.26c-.23-.22.35.19.73.74a3.44,3.44,0,0,1,.66,1.78c0,38.56,0,77.13,0,116.38Z"/><path class="cls-1" d="M469.77,307.75H576.82V414.43c.17-.18-.21.34-.73.67a3.2,3.2,0,0,1-1.61.55c-34.7,0-69.4,0-104.71,0Z"/><path class="cls-1" d="M726.87,319.94v83.21h-83c.18.17-.23-.11-.5-.5a2.31,2.31,0,0,1-.47-1.24c0-27,0-54,0-81.47Z"/><path class="cls-1" d="M789.15,307.75H896.2V414.41c.16-.16-.22.37-.73.69a3.24,3.24,0,0,1-1.62.55c-34.7,0-69.4,0-104.7,0Z"/><path class="cls-1" d="M945,301.75H1063.9V420.28c.2-.19-.23.39-.8.75a3.54,3.54,0,0,1-1.8.62c-38.56,0-77.11,0-116.34,0Z"/><path class="cls-1" d="M1112.69,307.73h107V414.5c.26-.23-.16.25-.68.57a3.38,3.38,0,0,1-1.61.58c-34.7,0-69.4,0-104.73,0Z"/><path class="cls-1" d="M1365.4,403.33h-83.2v-83c-.18.2.1-.22.48-.48a2.31,2.31,0,0,1,1.23-.49c27,0,54,0,81.49,0Z"/><path class="cls-1" d="M84,473.42V556.6H1c.22.2-.19-.07-.47-.45a2.33,2.33,0,0,1-.5-1.22c0-27,0-54,0-81.51Z"/><path class="cls-1" d="M256.18,569.16H151.82a8.24,8.24,0,0,1-1.34-1.22,3,3,0,0,1-.66-1.58c0-34.71,0-69.42,0-104.79H256.15C258.75,475.17,258.86,553.26,256.18,569.16Z"/><path class="cls-1" d="M302.07,455.21H421v118.6c.25-.24-.2.31-.77.67a3.65,3.65,0,0,1-1.79.63c-38.56,0-77.12,0-116.36,0Z"/><path class="cls-1" d="M582.75,574.79H463.83V456.2c-.24.23.21-.33.78-.69a3.65,3.65,0,0,1,1.79-.63c38.56,0,77.12,0,116.35,0Z"/><path class="cls-1" d="M738.86,461.5v107H632.18c.21.2-.32-.16-.65-.66a3,3,0,0,1-.59-1.6c0-34.71,0-69.41,0-104.74Z"/><path class="cls-1" d="M902.46,455.57V574.42H784c.28.26-.31-.13-.69-.67a3.35,3.35,0,0,1-.7-1.76c0-38.57,0-77.14,0-116.42Z"/><path class="cls-1" d="M945,455.19h118.88V573.72c.24-.24-.17.35-.72.72a3.39,3.39,0,0,1-1.77.67c-38.56,0-77.13,0-116.39,0Z"/><path class="cls-1" d="M1219.71,568.79h-107V462.06c-.22.21.18-.29.7-.62a3.32,3.32,0,0,1,1.61-.56c34.7,0,69.4,0,104.72,0Z"/><path class="cls-1" d="M1282.23,473.21h83.18v82.95c.2-.22-.07.2-.44.47a2.39,2.39,0,0,1-1.23.5c-27,0-54,0-81.51,0Z"/><path class="cls-1" d="M162.32,630.8h83.21v83c.17-.18-.11.23-.49.5a2.35,2.35,0,0,1-1.24.47c-27,0-54,0-81.48,0Z"/><path class="cls-1" d="M308.06,618.83H415V725.48c.25-.28-.1.26-.58.6a2.93,2.93,0,0,1-1.58.65c-34.71,0-69.42,0-104.79,0Z"/><path class="cls-1" d="M582.75,732.4H463.84V613.79c-.27.25.19-.3.76-.66a3.75,3.75,0,0,1,1.79-.63c38.56,0,77.12,0,116.36,0Z"/><path class="cls-1" d="M166.27,83.77V.52h83c-.15-.15.25.15.5.55a2.49,2.49,0,0,1,.44,1.26c0,27,0,54,0,81.44Z"/><path class="cls-1" d="M902.46,613.16V732.07H783.85c.25.26-.3-.19-.66-.76a3.77,3.77,0,0,1-.64-1.79c0-38.56,0-77.12,0-116.36Z"/><path class="cls-1" d="M952.17,618.45h104.36a8.24,8.24,0,0,1,1.34,1.22,3,3,0,0,1,.66,1.58c0,34.71,0,69.42,0,104.8H952.2C949.6,712.44,949.49,634.35,952.17,618.45Z"/><path class="cls-1" d="M1208,631v83.19h-83c.21.19-.21-.08-.48-.46a2.33,2.33,0,0,1-.5-1.22c0-27,0-54,0-81.51Z"/><path class="cls-1" d="M403.12,876.17h-83.2V793.22c-.18.2.09-.22.47-.49a2.34,2.34,0,0,1,1.23-.49c27,0,54,0,81.5,0Z"/><path class="cls-1" d="M469.81,780.57h107V887.24c.22-.23-.14.3-.63.64a3,3,0,0,1-1.59.61c-34.71,0-69.42,0-104.76,0Z"/><path class="cls-1" d="M625.63,612.82H744.48V731.34c.26-.29-.13.3-.67.69a3.44,3.44,0,0,1-1.76.7c-38.57,0-77.14,0-116.42,0Z"/><path class="cls-1" d="M896.47,780.87v107H789.71c.22.25-.26-.17-.58-.68a3.28,3.28,0,0,1-.58-1.61c0-34.71,0-69.41,0-104.73Z"/><path class="cls-1" d="M962.85,792.57H1046v83c.18-.19-.09.22-.47.49a2.37,2.37,0,0,1-1.24.49c-27,0-54,0-81.48,0Z"/><path class="cls-1" d="M565.09,950.37v83.25h-83c.15.15-.26-.16-.51-.55a2.57,2.57,0,0,1-.43-1.26c0-27,0-54,0-81.44Z"/><path class="cls-1" d="M630.89,1044.26V939.89a8.3,8.3,0,0,1,1.23-1.34,3,3,0,0,1,1.57-.66c34.71,0,69.43,0,104.8,0v106.36C724.89,1046.82,646.79,1046.93,630.89,1044.26Z"/><path class="cls-1" d="M884.27,1033.79H801v-83c-.2.18.12-.19.53-.44a2.56,2.56,0,0,1,1.25-.45c27,0,54,0,81.45,0Z"/><path class="cls-1" d="M625.6,774.58H744.51V893.2c.28-.25-.18.29-.76.65a3.63,3.63,0,0,1-1.78.64c-38.56,0-77.12,0-116.37,0Z"/></g></svg>